# xmcd
#
# Track frame offsets:
#	150
#	26238
#	40083
#	57249
#	69105
#	84347
#	99332
#	112734
#	126783
#	142119
#	156042
#	182898
#	196116
#	212347
#	225620
#	236589
#	248248
#	260749
#	275754
#	289750
#
# Disc length: 4037 seconds
#
# Revision: 1
# Processed by: cddbd v1.5.2PL0 Copyright (c) Steve Scherf et al.
# Submitted via: audiograbber 1.82.01
#
DISCID=170fc314
DTITLE=Jorge and Mateus - Ao Vivo em Goiânia
DYEAR=2008
DGENRE=
TTITLE0=Tem nada a ver - Te cuida coração
TTITLE1=Fogueira
TTITLE2=Amor não é Jogo de Azar
TTITLE3=Paixão Goiana
TTITLE4=Castigo
TTITLE5=Morena Proibida
TTITLE6=Querendo te Amar
TTITLE7=De Tanto te Querer
TTITLE8=Pode Chorar
TTITLE9=Tá Faltando Amor
TTITLE10=Chora Viola/ Caminhoneiro/ Ladrão de Mulher/ O Campeão/ A Vaca Já Foi 
TTITLE10=pro Brejo
TTITLE11=Me Leva
TTITLE12=Traz ela devolta pra Mim
TTITLE13=Espinhos na Cama/ Avião das Nove
TTITLE14=Te amo Tanto que nem sei
TTITLE15=Meu Despreso
TTITLE16=Goiânia me Espera
TTITLE17=Do Brasil a Argentina (Tô indo te Buscar)
TTITLE18=Cavaco de Pau
TTITLE19=Vou Fazer Pirraça (Bonus)
EXTD=
EXTT0=
EXTT1=
EXTT2=
EXTT3=
EXTT4=
EXTT5=
EXTT6=
EXTT7=
EXTT8=
EXTT9=
EXTT10=
EXTT11=
EXTT12=
EXTT13=
EXTT14=
EXTT15=
EXTT16=
EXTT17=
EXTT18=
EXTT19=
PLAYORDER=
